<svg version="1.1" id="Layer_1" xmlns="http://www.w3.org/2000/svg" xmlns:xlink="http://www.w3.org/1999/xlink" x="0px" y="0px"
	 width="100%" viewBox="0 0 500 500" enable-background="new 0 0 500 500" xml:space="preserve">
<path fill="#FFFFFF" opacity="1.000000" stroke="none" 
	d="
M328.000000,501.000000 
	C218.666687,501.000000 109.833382,501.000000 1.000058,501.000000 
	C1.000039,334.333405 1.000039,167.666794 1.000019,1.000148 
	C167.666565,1.000099 334.333130,1.000099 500.999756,1.000049 
	C500.999847,167.666519 500.999847,334.333038 500.999939,500.999786 
	C443.500000,501.000000 386.000000,501.000000 328.000000,501.000000 
M109.929855,239.685486 
	C106.375877,243.434097 102.821892,247.182709 99.050087,251.161072 
	C100.757477,252.702271 102.186287,253.992020 103.650703,255.944733 
	C102.405540,258.239685 101.329956,260.648804 99.878258,262.804688 
	C97.234909,266.730225 98.256874,269.273254 102.183517,271.592896 
	C109.795036,276.089386 118.019264,277.950989 126.941277,278.797882 
	C132.434814,284.456970 137.928345,290.116089 143.291962,296.734161 
	C143.264923,315.881561 143.271698,335.029114 143.175140,354.176147 
	C143.160309,357.116425 143.669556,358.853882 147.228638,358.821472 
	C166.871887,358.642548 186.516678,358.634247 206.735672,358.948578 
	C221.301498,373.698975 235.867310,388.449341 251.493988,404.274048 
	C266.704559,388.596436 281.271606,373.582092 296.789612,358.691528 
	C315.939209,358.717438 335.089050,358.704895 354.238220,358.809113 
	C357.235779,358.825409 358.868347,358.207062 358.836609,354.704773 
	C358.658508,335.059448 358.646210,315.412598 358.956207,295.198730 
	C364.648254,289.148315 370.340271,283.097900 376.798096,276.937134 
	C382.650391,274.707153 388.502655,272.477142 394.001831,270.381714 
	C392.960602,266.639526 392.316284,264.323822 392.269318,261.690735 
	C393.172028,260.712830 394.074707,259.734924 395.701447,258.857635 
	C397.506531,261.222839 399.177124,263.706543 401.139069,265.933533 
	C411.770477,278.000824 427.861786,281.455994 445.509247,274.887726 
	C460.844086,269.180237 469.154175,257.526001 470.713013,241.445312 
	C472.308105,224.990921 466.253601,211.421097 452.075409,202.807373 
	C429.860535,189.311050 402.455200,200.023773 394.435974,224.808289 
	C392.921326,229.489624 392.151886,234.412079 390.598083,238.585526 
	C385.929352,233.909088 381.218933,229.272919 376.629639,224.519836 
	C375.783417,223.643433 375.427246,222.293900 375.539093,220.786331 
	C378.047943,221.117935 380.556763,221.449554 383.617310,222.181808 
	C384.458862,221.924637 385.775574,221.920425 386.068054,221.370956 
	C388.852936,216.139709 391.464081,210.815979 394.764191,204.246735 
	C388.786774,202.067093 383.433411,199.260071 377.764343,198.280594 
	C371.711212,197.234772 365.359985,197.914459 358.925629,196.945557 
	C358.878815,180.676987 358.787994,164.408325 358.824249,148.139938 
	C358.831055,145.077759 358.480133,143.129578 354.603394,143.169861 
	C335.016663,143.373428 315.427734,143.366531 295.264984,143.051941 
	C280.719543,128.286087 266.174103,113.520218 250.556778,97.666237 
	C235.276794,113.418022 220.718781,128.425552 205.209930,143.309494 
	C186.259247,143.283493 167.306992,143.380020 148.359039,143.139420 
	C143.994980,143.084030 143.103775,144.742371 143.138779,148.678894 
	C143.286621,165.300766 143.164459,181.925064 142.269913,198.383179 
	C140.472519,198.041489 138.683685,197.643951 136.876404,197.366730 
	C118.641846,194.569839 104.636566,206.428802 104.158615,225.589050 
	C106.193901,230.088242 108.229179,234.587448 109.929855,239.685486 
M42.592522,277.949005 
	C43.756767,277.944550 44.924881,278.000641 46.084671,277.926514 
	C61.709892,276.927673 69.776443,269.528168 70.324318,253.929230 
	C70.954773,235.979126 70.518898,217.991379 70.507828,200.019989 
	C70.507469,199.436310 70.087837,198.852875 69.909103,198.387634 
	C63.067474,198.387634 56.477482,198.387634 49.487415,198.387634 
	C49.165127,202.728500 48.634045,206.825317 48.598343,210.926422 
	C48.483902,224.072235 48.617195,237.220078 48.523045,250.366211 
	C48.477764,256.688477 44.381325,258.906525 38.915733,255.617538 
	C36.741394,254.309097 34.811905,252.593765 32.580666,250.921051 
	C30.360447,256.630219 28.303087,261.873383 26.284149,267.131256 
	C25.204813,269.942169 25.477900,272.501587 28.596024,273.655487 
	C32.890850,275.244873 37.310360,276.497284 42.592522,277.949005 
M81.877022,233.296936 
	C82.489357,233.475571 83.246513,233.981445 83.692444,233.784073 
	C91.142830,230.486801 99.836403,215.256577 98.925407,207.244934 
	C98.386833,202.508484 94.361252,198.047104 89.821495,197.155411 
	C84.751266,196.159515 79.690643,198.660278 77.352570,203.317047 
	C73.763382,210.465683 74.539436,213.783997 81.582756,220.663315 
	C80.627884,222.293823 79.766945,224.086700 78.615364,225.667923 
	C75.553047,229.872742 76.005371,231.330338 81.877022,233.296936 
z"/>
<path fill="#6F5E47" opacity="1.000000" stroke="none" 
	d="
M376.032318,277.047485 
	C370.340271,283.097900 364.648254,289.148315 358.463562,295.593323 
	C351.809479,302.267975 345.684143,308.583954 339.479462,314.820953 
	C324.952728,329.423340 310.388000,343.987885 295.838684,358.567749 
	C281.271606,373.582092 266.704559,388.596436 251.493988,404.274048 
	C235.867310,388.449341 221.301498,373.698975 206.288208,358.482300 
	C191.717819,343.939819 177.593399,329.865143 163.472580,315.786804 
	C156.785477,309.119812 150.105225,302.445923 143.421875,295.775177 
	C137.928345,290.116089 132.434814,284.456970 127.294098,278.434509 
	C137.125198,277.513519 145.843826,275.337006 152.660522,267.936218 
	C160.476471,259.450592 160.141739,241.859238 149.760742,235.900513 
	C143.600769,232.364685 137.341476,229.001419 131.115997,225.580307 
	C126.374184,222.974533 126.324486,221.021225 131.359436,217.997925 
	C134.726196,218.927582 137.662476,219.940643 140.662903,220.700272 
	C142.050095,221.051468 143.562500,220.908142 145.340576,221.126877 
	C146.944626,220.823105 148.686493,220.752686 149.407394,219.858841 
	C150.714340,218.238449 151.412064,216.127014 152.365891,214.221436 
	C156.446915,206.068375 156.447144,206.068481 150.178558,199.846100 
	C168.941269,180.841873 187.551025,162.137482 206.160767,143.433075 
	C220.718781,128.425552 235.276794,113.418022 250.556778,97.666237 
	C266.174103,113.520218 280.719543,128.286087 295.712402,143.518311 
	C298.175537,145.953827 300.217133,147.897263 302.202972,149.896118 
	C318.786987,166.588974 335.360779,183.292007 351.627319,200.142029 
	C349.841156,201.052887 348.290161,201.697205 346.901672,202.593323 
	C337.353455,208.755524 329.317596,216.129990 326.734985,228.138214 
	C326.320068,228.873108 326.146240,229.432327 325.695251,229.760132 
	C322.572754,223.607422 320.431946,217.200287 316.747406,211.857834 
	C306.516083,197.022888 284.288513,192.809235 268.626129,201.513580 
	C254.851028,209.169083 248.587952,221.086670 246.630920,236.370087 
	C243.196350,259.582916 262.702148,280.060669 283.301941,277.955872 
	C287.972870,277.422180 292.310455,277.321136 296.381378,276.227448 
	C311.557159,272.150208 320.649139,261.926575 324.895599,247.403442 
	C327.011353,257.180176 332.431763,264.489380 339.891083,270.111023 
	C344.882324,273.872650 350.199890,277.681732 357.344910,277.003967 
	C357.567322,276.992767 358.011871,276.966064 358.267181,277.081543 
	C359.016296,277.455231 359.510071,277.713409 360.456848,277.985474 
	C365.950684,277.682007 370.991486,277.364746 376.032318,277.047485 
M179.476639,234.536545 
	C174.885895,259.876526 199.397079,279.202698 217.756256,277.976532 
	C228.696487,277.049072 239.957352,277.190948 248.972488,268.912323 
	C245.994904,263.045502 243.166473,257.472626 240.361496,251.945892 
	C229.603714,256.550781 230.175400,257.014893 219.967255,256.054657 
	C208.066208,254.935165 200.185837,243.642319 203.517883,232.025238 
	C206.805801,220.561996 215.292282,217.812347 225.470337,219.093887 
	C230.415268,219.716522 235.236572,221.321045 240.253647,222.514313 
	C243.212952,216.587280 246.010651,210.983948 248.728912,205.539719 
	C248.061111,204.744492 247.777008,204.330582 247.417191,203.998840 
	C247.053787,203.663818 246.640945,203.362747 246.205963,203.127869 
	C232.654755,195.810303 218.738297,194.534317 204.627594,201.216904 
	C190.802826,207.764053 182.415329,218.622208 179.476639,234.536545 
z"/>
<path fill="#906329" opacity="1.000000" stroke="none" 
	d="
M324.828857,247.024979 
	C320.649139,261.926575 311.557159,272.150208 296.381378,276.227448 
	C292.310455,277.321136 287.972870,277.422180 283.087402,277.663330 
	C259.933380,273.360291 248.671371,258.963165 246.944901,236.117996 
	C248.587952,221.086670 254.851028,209.169083 268.626129,201.513580 
	C284.288513,192.809235 306.516083,197.022888 316.747406,211.857834 
	C320.431946,217.200287 322.572754,223.607422 325.950500,229.596832 
	C326.647308,229.097504 326.811676,228.530014 326.976074,227.962540 
	C329.317596,216.129990 337.353455,208.755524 346.901672,202.593323 
	C348.290161,201.697205 349.841156,201.052887 352.001892,200.098114 
	C354.837524,199.216415 356.988220,198.528656 359.138885,197.840897 
	C365.359985,197.914459 371.711212,197.234772 377.764343,198.280594 
	C383.433411,199.260071 388.786774,202.067093 394.764191,204.246735 
	C391.464081,210.815979 388.852936,216.139709 386.068054,221.370956 
	C385.775574,221.920425 384.458862,221.924637 383.143616,221.693451 
	C376.824677,217.891388 370.699799,216.828674 363.773773,218.933426 
	C353.295898,219.687912 345.877899,231.825607 348.538879,242.263687 
	C351.907318,255.477051 369.678894,260.381561 381.727692,253.589249 
	C382.803925,252.982559 383.910858,252.430435 384.807861,251.956375 
	C387.302673,255.609741 389.487305,258.808929 391.671936,262.008118 
	C392.316284,264.323822 392.960602,266.639526 394.001831,270.381714 
	C388.502655,272.477142 382.650391,274.707153 376.415222,276.992310 
	C370.991486,277.364746 365.950684,277.682007 360.424866,277.696960 
	C359.297241,277.251740 358.654541,277.108887 358.011871,276.966064 
	C358.011871,276.966064 357.567322,276.992767 357.121704,276.717957 
	C340.809784,270.902130 329.899048,260.544342 325.166962,244.096634 
	C325.054260,245.072754 324.941559,246.048859 324.828857,247.024979 
M288.565033,201.510208 
	C287.052155,201.650467 285.539307,201.790710 283.181610,202.001480 
	C279.344543,202.892990 275.142059,203.066605 271.734161,204.801239 
	C257.571625,212.009979 251.272690,223.894928 251.929092,239.744293 
	C252.828995,261.472717 271.362000,277.261993 294.684387,272.382233 
	C308.630737,269.464294 316.918274,259.947296 320.606842,245.420120 
	C320.741730,241.456421 321.001740,237.492325 320.989746,233.529068 
	C320.939270,216.873627 305.618927,201.860962 288.997070,202.007339 
	C288.997070,202.007339 288.994934,202.073425 288.565033,201.510208 
M385.730103,205.417587 
	C383.383514,204.701035 381.041687,203.968536 378.689514,203.270813 
	C370.527527,200.849731 362.643982,200.861725 354.354919,203.763840 
	C336.930847,209.864304 323.266632,231.051880 332.907135,251.347000 
	C343.791870,274.261505 371.566986,278.260803 387.514923,268.011047 
	C385.411560,260.107574 380.797852,257.211670 373.052704,260.980530 
	C372.509552,261.244843 371.736542,261.036835 370.182373,261.017242 
	C364.847778,259.569061 358.975586,259.081696 354.295776,256.463226 
	C345.791473,251.704849 343.345764,243.273712 343.954498,233.120758 
	C348.760223,215.913788 363.805603,209.572830 383.993347,216.714874 
	C385.320587,213.397171 386.663757,210.039703 387.955811,206.234482 
	C387.370941,206.135574 386.786041,206.036667 385.730103,205.417587 
M325.822327,237.970963 
	C325.726990,237.564270 325.631622,237.157593 325.536285,236.750900 
	C325.415466,236.840118 325.182526,236.944794 325.192352,237.015991 
	C325.249298,237.428833 325.363434,237.833801 325.822327,237.970963 
z"/>
<path fill="#CAAB82" opacity="1.000000" stroke="none" 
	d="
M296.314148,358.629639 
	C310.388000,343.987885 324.952728,329.423340 339.479462,314.820953 
	C345.684143,308.583954 351.809479,302.267975 358.274109,295.877075 
	C358.646210,315.412598 358.658508,335.059448 358.836609,354.704773 
	C358.868347,358.207062 357.235779,358.825409 354.238220,358.809113 
	C335.089050,358.704895 315.939209,358.717438 296.314148,358.629639 
z"/>
<path fill="#CAAB82" opacity="1.000000" stroke="none" 
	d="
M143.356918,296.254669 
	C150.105225,302.445923 156.785477,309.119812 163.472580,315.786804 
	C177.593399,329.865143 191.717819,343.939819 206.000854,358.291748 
	C186.516678,358.634247 166.871887,358.642548 147.228638,358.821472 
	C143.669556,358.853882 143.160309,357.116425 143.175140,354.176147 
	C143.271698,335.029114 143.264923,315.881561 143.356918,296.254669 
z"/>
<path fill="#C9AA82" opacity="1.000000" stroke="none" 
	d="
M359.032257,197.393219 
	C356.988220,198.528656 354.837524,199.216415 352.312256,199.948074 
	C335.360779,183.292007 318.786987,166.588974 302.202972,149.896118 
	C300.217133,147.897263 298.175537,145.953827 295.999695,143.709076 
	C315.427734,143.366531 335.016663,143.373428 354.603394,143.169861 
	C358.480133,143.129578 358.831055,145.077759 358.824249,148.139938 
	C358.787994,164.408325 358.878815,180.676987 359.032257,197.393219 
z"/>
<path fill="#C9AA82" opacity="1.000000" stroke="none" 
	d="
M205.685349,143.371292 
	C187.551025,162.137482 168.941269,180.841873 149.800568,199.831223 
	C147.226776,199.593628 145.183899,199.071045 143.141037,198.548462 
	C143.164459,181.925064 143.286621,165.300766 143.138779,148.678894 
	C143.103775,144.742371 143.994980,143.084030 148.359039,143.139420 
	C167.306992,143.380020 186.259247,143.283493 205.685349,143.371292 
z"/>
<path fill="#94672E" opacity="1.000000" stroke="none" 
	d="
M142.705475,198.465820 
	C145.183899,199.071045 147.226776,199.593628 149.647629,200.131073 
	C156.447144,206.068481 156.446915,206.068375 152.365891,214.221436 
	C151.412064,216.127014 150.714340,218.238449 149.407394,219.858841 
	C148.686493,220.752686 146.944626,220.823105 145.142731,220.833893 
	C140.287735,218.349014 136.141342,215.233810 130.955200,217.977692 
	C126.324486,221.021225 126.374184,222.974533 131.115997,225.580307 
	C137.341476,229.001419 143.600769,232.364685 149.760742,235.900513 
	C160.141739,241.859238 160.476471,259.450592 152.660522,267.936218 
	C145.843826,275.337006 137.125198,277.513519 127.189507,278.110596 
	C118.019264,277.950989 109.795036,276.089386 102.183517,271.592896 
	C98.256874,269.273254 97.234909,266.730225 99.878258,262.804688 
	C101.329956,260.648804 102.405540,258.239685 103.962112,255.438812 
	C105.797661,252.939911 107.321793,250.946945 108.214340,249.779846 
	C114.241058,252.550110 119.384239,255.624252 124.951775,257.163025 
	C127.591431,257.892578 131.041687,255.689178 134.389771,254.656693 
	C136.769501,251.840164 135.219467,250.197617 132.967468,248.961533 
	C128.028717,246.250763 122.578674,244.239426 118.172714,240.855026 
	C113.716118,237.431732 110.214600,232.743820 106.414818,228.502274 
	C105.510643,227.492950 105.084816,226.055130 104.438965,224.814407 
	C104.636566,206.428802 118.641846,194.569839 136.876404,197.366730 
	C138.683685,197.643951 140.472519,198.041489 142.705475,198.465820 
M127.210419,262.195862 
	C122.500290,260.354218 117.812271,258.452332 113.065437,256.710693 
	C111.779900,256.239014 110.146027,253.328171 108.422890,257.300293 
	C106.908348,259.826691 105.393806,262.353119 103.700493,265.177704 
	C114.231041,272.265656 125.187920,274.715729 137.139603,272.015717 
	C145.324142,270.166748 151.449570,265.923859 153.604385,256.421600 
	C154.958435,248.916107 153.238983,242.560196 146.260315,238.615005 
	C138.558380,234.260941 130.685745,230.208832 122.331062,225.445435 
	C121.234245,214.161270 125.765785,210.245468 137.015305,212.893890 
	C140.185730,213.640289 143.275345,214.729919 146.749802,215.765808 
	C147.949844,213.050919 149.105209,210.437088 150.296356,207.742325 
	C148.414093,206.880142 147.179855,206.445114 146.077118,205.789047 
	C137.260529,200.543671 128.241745,199.571716 119.171364,204.903061 
	C106.801796,212.173553 106.427109,228.261551 118.464836,235.970169 
	C122.355850,238.461884 126.699188,240.235870 130.743561,242.502457 
	C135.367432,245.093811 140.726517,247.403244 139.863220,254.120010 
	C139.049850,260.448425 133.512650,261.030151 128.763565,262.394012 
	C128.447571,262.484772 128.109879,262.500000 127.210419,262.195862 
z"/>
<path fill="#705F48" opacity="1.000000" stroke="none" 
	d="
M391.970642,261.849426 
	C389.487305,258.808929 387.302673,255.609741 384.807861,251.956375 
	C383.910858,252.430435 382.803925,252.982559 381.727692,253.589249 
	C369.678894,260.381561 351.907318,255.477051 348.538879,242.263687 
	C345.877899,231.825607 353.295898,219.687912 364.172058,218.924133 
	C367.589752,219.611404 370.198425,220.332794 373.188843,221.250031 
	C374.036652,221.331604 374.502625,221.217346 374.923706,221.089005 
	C374.878784,221.074936 374.844849,221.162766 374.844849,221.162750 
	C375.427246,222.293900 375.783417,223.643433 376.629639,224.519836 
	C381.218933,229.272919 385.929352,233.909088 390.805420,239.241104 
	C392.334351,246.183456 393.655884,252.470245 394.977417,258.757019 
	C394.074707,259.734924 393.172028,260.712830 391.970642,261.849426 
z"/>
<path fill="#996E36" opacity="1.000000" stroke="none" 
	d="
M395.339417,258.807312 
	C393.655884,252.470245 392.334351,246.183456 391.025696,239.559967 
	C392.151886,234.412079 392.921326,229.489624 394.435974,224.808289 
	C402.455200,200.023773 429.860535,189.311050 452.075409,202.807373 
	C466.253601,211.421097 472.308105,224.990921 470.713013,241.445312 
	C469.154175,257.526001 460.844086,269.180237 445.509247,274.887726 
	C427.861786,281.455994 411.770477,278.000824 401.139069,265.933533 
	C399.177124,263.706543 397.506531,261.222839 395.339417,258.807312 
M440.582031,203.226410 
	C434.370056,203.102768 427.757935,201.534058 422.020233,203.122986 
	C403.890106,208.143692 394.536896,225.520920 398.025513,245.549637 
	C401.857483,267.549805 428.189850,280.262390 447.555786,269.342682 
	C460.962250,261.783264 467.712311,250.538971 465.930267,233.965073 
	C464.376709,228.477997 463.819489,222.410263 461.038513,217.638535 
	C456.753815,210.286606 450.565033,204.358597 440.582031,203.226410 
z"/>
<path fill="#986C33" opacity="1.000000" stroke="none" 
	d="
M42.134491,277.921539 
	C37.310360,276.497284 32.890850,275.244873 28.596024,273.655487 
	C25.477900,272.501587 25.204813,269.942169 26.284149,267.131256 
	C28.303087,261.873383 30.360447,256.630219 32.580666,250.921051 
	C34.811905,252.593765 36.741394,254.309097 38.915733,255.617538 
	C44.381325,258.906525 48.477764,256.688477 48.523045,250.366211 
	C48.617195,237.220078 48.483902,224.072235 48.598343,210.926422 
	C48.634045,206.825317 49.165127,202.728500 49.487415,198.387634 
	C56.477482,198.387634 63.067474,198.387634 69.909103,198.387634 
	C70.087837,198.852875 70.507469,199.436310 70.507828,200.019989 
	C70.518898,217.991379 70.954773,235.979126 70.324318,253.929230 
	C69.776443,269.528168 61.709892,276.927673 46.084671,277.926514 
	C44.924881,278.000641 43.756767,277.944550 42.134491,277.921539 
M65.921555,257.889771 
	C65.991837,240.791611 66.101257,223.693314 66.045868,206.595551 
	C66.042107,205.434128 64.799431,204.276703 63.215164,203.064774 
	C52.755966,202.978119 53.997406,202.347015 53.966431,211.970993 
	C53.926807,224.280884 54.025940,236.591568 53.925259,248.900772 
	C53.858055,257.116821 51.047039,260.310150 42.922649,261.057129 
	C40.193993,261.308014 37.362068,260.435760 34.096222,260.014893 
	C33.135632,262.247375 32.048199,264.774689 31.009439,267.188843 
	C43.460484,277.991364 61.571758,273.445007 65.921555,257.889771 
z"/>
<path fill="#986D34" opacity="1.000000" stroke="none" 
	d="
M81.503731,233.194702 
	C76.005371,231.330338 75.553047,229.872742 78.615364,225.667923 
	C79.766945,224.086700 80.627884,222.293823 81.582756,220.663315 
	C74.539436,213.783997 73.763382,210.465683 77.352570,203.317047 
	C79.690643,198.660278 84.751266,196.159515 89.821495,197.155411 
	C94.361252,198.047104 98.386833,202.508484 98.925407,207.244934 
	C99.836403,215.256577 91.142830,230.486801 83.692444,233.784073 
	C83.246513,233.981445 82.489357,233.475571 81.503731,233.194702 
M84.756790,202.792419 
	C78.457283,206.365128 79.283615,210.102341 87.837517,216.156158 
	C87.699532,216.713577 87.595009,217.353043 87.382797,217.954514 
	C86.564888,220.272827 85.712555,222.578964 84.547318,225.114182 
	C84.584091,225.326309 84.620865,225.538422 84.657631,225.750549 
	C84.844009,225.576279 85.030380,225.402008 85.911926,225.154480 
	C90.644150,221.673965 93.364037,217.013885 94.433273,210.511566 
	C94.297974,208.753082 94.614906,206.793076 93.938728,205.275620 
	C92.222626,201.424454 88.399818,200.550629 84.756790,202.792419 
z"/>
<path fill="#73624A" opacity="1.000000" stroke="none" 
	d="
M134.124710,254.814514 
	C131.041687,255.689178 127.591431,257.892578 124.951775,257.163025 
	C119.384239,255.624252 114.241058,252.550110 108.214340,249.779846 
	C107.321793,250.946945 105.797661,252.939911 103.944305,255.107315 
	C102.186287,253.992020 100.757477,252.702271 99.050087,251.161072 
	C102.821892,247.182709 106.375877,243.434097 110.423798,239.436737 
	C117.033249,242.491959 123.266273,245.602478 129.199417,249.206650 
	C131.228104,250.439011 132.504562,252.909637 134.124710,254.814514 
z"/>
<path fill="#C1A177" opacity="1.000000" stroke="none" 
	d="
M134.389771,254.656677 
	C132.504562,252.909637 131.228104,250.439011 129.199417,249.206650 
	C123.266273,245.602478 117.033249,242.491959 110.591095,239.137329 
	C108.229179,234.587448 106.193901,230.088242 104.298798,225.201721 
	C105.084816,226.055130 105.510643,227.492950 106.414818,228.502274 
	C110.214600,232.743820 113.716118,237.431732 118.172714,240.855026 
	C122.578674,244.239426 128.028717,246.250763 132.967468,248.961533 
	C135.219467,250.197617 136.769501,251.840164 134.389771,254.656677 
z"/>
<path fill="#C1A177" opacity="1.000000" stroke="none" 
	d="
M372.807068,221.054169 
	C370.198425,220.332794 367.589752,219.611404 364.582825,218.899323 
	C370.699799,216.828674 376.824677,217.891388 382.867737,221.493134 
	C380.556763,221.449554 378.047943,221.117935 375.191956,220.974548 
	C374.844849,221.162766 374.878784,221.074936 374.889130,220.741135 
	C374.201996,220.622955 373.504547,220.838562 372.807068,221.054169 
z"/>
<path fill="#92652B" opacity="1.000000" stroke="none" 
	d="
M180.016907,233.884735 
	C182.415329,218.622208 190.802826,207.764053 204.627594,201.216904 
	C218.738297,194.534317 232.654755,195.810303 246.205963,203.127869 
	C246.640945,203.362747 247.053787,203.663818 247.417191,203.998840 
	C247.777008,204.330582 248.061111,204.744492 248.728912,205.539719 
	C246.010651,210.983948 243.212952,216.587280 240.253647,222.514313 
	C235.236572,221.321045 230.415268,219.716522 225.470337,219.093887 
	C215.292282,217.812347 206.805801,220.561996 203.517883,232.025238 
	C200.185837,243.642319 208.066208,254.935165 219.967255,256.054657 
	C230.175400,257.014893 229.603714,256.550781 240.361496,251.945892 
	C243.166473,257.472626 245.994904,263.045502 248.972488,268.912323 
	C239.957352,277.190948 228.696487,277.049072 217.102097,277.662659 
	C193.086395,271.924133 180.136353,256.474091 180.016907,233.884735 
M219.606918,261.235321 
	C218.743362,260.820770 217.920288,260.216492 217.009735,260.022156 
	C210.730347,258.682159 206.161240,255.198547 202.397049,249.958466 
	C198.568024,244.628082 199.035568,238.798096 198.954071,232.168457 
	C202.473785,216.810577 219.170715,210.843445 232.160934,214.562057 
	C239.393250,216.632401 240.396103,215.980408 242.545654,207.596039 
	C242.425842,207.002563 242.499237,206.053558 242.157761,205.867966 
	C234.908722,201.928268 227.256317,200.204803 218.203552,202.012268 
	C216.076584,202.350677 213.901077,202.506241 211.830124,203.055740 
	C191.009628,208.580399 177.943695,231.309296 188.090103,252.080383 
	C197.492615,271.328552 220.930389,278.575623 241.763504,268.607056 
	C243.403641,264.582581 240.626282,259.012482 236.166763,258.947510 
	C230.769791,259.909576 225.372833,260.871643 219.606918,261.235321 
z"/>
<path fill="#C1A177" opacity="1.000000" stroke="none" 
	d="
M246.630920,236.370087 
	C248.671371,258.963165 259.933380,273.360291 282.631653,277.640259 
	C262.702148,280.060669 243.196350,259.582916 246.630920,236.370087 
z"/>
<path fill="#BF9F76" opacity="1.000000" stroke="none" 
	d="
M179.746765,234.210632 
	C180.136353,256.474091 193.086395,271.924133 216.653931,277.643005 
	C199.397079,279.202698 174.885895,259.876526 179.746765,234.210632 
z"/>
<path fill="#C0A076" opacity="1.000000" stroke="none" 
	d="
M324.895599,247.403442 
	C324.941559,246.048859 325.054260,245.072754 325.166962,244.096634 
	C329.899048,260.544342 340.809784,270.902130 356.899292,276.729187 
	C350.199890,277.681732 344.882324,273.872650 339.891083,270.111023 
	C332.431763,264.489380 327.011353,257.180176 324.895599,247.403442 
z"/>
<path fill="#BF9F76" opacity="1.000000" stroke="none" 
	d="
M131.359436,217.997925 
	C136.141342,215.233810 140.287735,218.349014 144.820282,220.696045 
	C143.562500,220.908142 142.050095,221.051468 140.662903,220.700272 
	C137.662476,219.940643 134.726196,218.927582 131.359436,217.997925 
z"/>
<path fill="#92652B" opacity="1.000000" stroke="none" 
	d="
M358.267181,277.081543 
	C358.654541,277.108887 359.297241,277.251740 359.971893,277.683105 
	C359.510071,277.713409 359.016296,277.455231 358.267181,277.081543 
z"/>
<path fill="#92652B" opacity="1.000000" stroke="none" 
	d="
M326.734955,228.138214 
	C326.811676,228.530014 326.647308,229.097504 326.227661,229.828278 
	C326.146240,229.432327 326.320068,228.873108 326.734955,228.138214 
z"/>
<path fill="#C7A77C" opacity="1.000000" stroke="none" 
	d="
M320.025177,246.022430 
	C316.918274,259.947296 308.630737,269.464294 294.684387,272.382233 
	C271.362000,277.261993 252.828995,261.472717 251.929092,239.744293 
	C251.272690,223.894928 257.571625,212.009979 271.734161,204.801239 
	C275.142059,203.066605 279.344543,202.892990 284.015076,202.010468 
	C286.230652,202.037460 287.612793,202.055435 288.994934,202.073425 
	C288.994934,202.073425 288.997070,202.007339 289.229858,202.283417 
	C298.531555,204.440063 305.979401,208.799713 311.909912,216.095062 
	C319.118347,224.962463 320.518738,235.182190 320.025177,246.022430 
M265.460327,231.556229 
	C264.992462,234.970306 264.025696,238.401459 264.141937,241.795532 
	C264.681732,257.557556 277.064240,265.067657 289.759094,261.022095 
	C295.951050,259.911407 301.041901,257.129761 304.057251,251.360886 
	C308.939819,242.019699 309.094177,232.576736 304.062012,223.291000 
	C299.951935,215.706726 291.838806,212.334839 283.465698,213.585709 
	C273.170349,215.123749 268.695923,222.077103 265.460327,231.556229 
z"/>
<path fill="#C7A77D" opacity="1.000000" stroke="none" 
	d="
M388.006897,206.682220 
	C386.663757,210.039703 385.320587,213.397171 383.993347,216.714874 
	C363.805603,209.572830 348.760223,215.913788 343.679810,233.774918 
	C340.820312,242.921661 343.290527,250.203125 349.597382,255.883759 
	C355.632568,261.319702 362.923431,263.444031 371.070435,261.048462 
	C371.736542,261.036835 372.509552,261.244843 373.052704,260.980530 
	C380.797852,257.211670 385.411560,260.107574 387.514923,268.011047 
	C371.566986,278.260803 343.791870,274.261505 332.907135,251.347000 
	C323.266632,231.051880 336.930847,209.864304 354.354919,203.763840 
	C362.643982,200.861725 370.527527,200.849731 378.689514,203.270813 
	C381.041687,203.968536 383.383514,204.701035 386.084839,205.922028 
	C386.962036,206.511734 387.484467,206.596985 388.006897,206.682220 
z"/>
<path fill="#746147" opacity="1.000000" stroke="none" 
	d="
M320.316010,245.721283 
	C320.518738,235.182190 319.118347,224.962463 311.909912,216.095062 
	C305.979401,208.799713 298.531555,204.440063 289.200958,202.299469 
	C305.618927,201.860962 320.939270,216.873627 320.989746,233.529068 
	C321.001740,237.492325 320.741730,241.456421 320.316010,245.721283 
z"/>
<path fill="#776348" opacity="1.000000" stroke="none" 
	d="
M370.626404,261.032837 
	C362.923431,263.444031 355.632568,261.319702 349.597382,255.883759 
	C343.290527,250.203125 340.820312,242.921661 343.666046,234.153046 
	C343.345764,243.273712 345.791473,251.704849 354.295776,256.463226 
	C358.975586,259.081696 364.847778,259.569061 370.626404,261.032837 
z"/>
<path fill="#746147" opacity="1.000000" stroke="none" 
	d="
M288.779968,201.791809 
	C287.612793,202.055435 286.230652,202.037460 284.437469,201.975220 
	C285.539307,201.790710 287.052155,201.650467 288.779968,201.791809 
z"/>
<path fill="#92652B" opacity="1.000000" stroke="none" 
	d="
M325.640259,238.106201 
	C325.363434,237.833801 325.249298,237.428833 325.192352,237.015991 
	C325.182526,236.944794 325.415466,236.840118 325.536285,236.750900 
	C325.631622,237.157593 325.726990,237.564270 325.640259,238.106201 
z"/>
<path fill="#92652B" opacity="1.000000" stroke="none" 
	d="
M387.981384,206.458359 
	C387.484467,206.596985 386.962036,206.511734 386.320374,206.182129 
	C386.786041,206.036667 387.370941,206.135574 387.981384,206.458359 
z"/>
<path fill="#C7A77D" opacity="1.000000" stroke="none" 
	d="
M153.042023,256.992676 
	C151.449570,265.923859 145.324142,270.166748 137.139603,272.015717 
	C125.187920,274.715729 114.231041,272.265656 103.700493,265.177704 
	C105.393806,262.353119 106.908348,259.826691 109.006699,257.283722 
	C115.161377,260.725952 120.811249,263.912750 127.782280,262.550323 
	C128.109879,262.500000 128.447571,262.484772 128.763565,262.394012 
	C133.512650,261.030151 139.049850,260.448425 139.863220,254.120010 
	C140.726517,247.403244 135.367432,245.093811 130.743561,242.502457 
	C126.699188,240.235870 122.355850,238.461884 118.464836,235.970169 
	C106.427109,228.261551 106.801796,212.173553 119.171364,204.903061 
	C128.241745,199.571716 137.260529,200.543671 146.077118,205.789047 
	C147.179855,206.445114 148.414093,206.880142 150.296356,207.742325 
	C149.105209,210.437088 147.949844,213.050919 146.749802,215.765808 
	C143.275345,214.729919 140.185730,213.640289 137.015305,212.893890 
	C125.765785,210.245468 121.234245,214.161270 122.658325,226.098373 
	C124.059067,227.867279 124.945717,229.327881 126.242935,230.031097 
	C129.442139,231.765350 132.906784,233.006134 136.126938,234.706238 
	C145.196136,239.494385 153.451248,244.977982 153.042023,256.992676 
z"/>
<path fill="#746147" opacity="1.000000" stroke="none" 
	d="
M153.323212,256.707153 
	C153.451248,244.977982 145.196136,239.494385 136.126938,234.706238 
	C132.906784,233.006134 129.442139,231.765350 126.242935,230.031097 
	C124.945717,229.327881 124.059067,227.867279 122.936539,226.388245 
	C130.685745,230.208832 138.558380,234.260941 146.260315,238.615005 
	C153.238983,242.560196 154.958435,248.916107 153.323212,256.707153 
z"/>
<path fill="#776348" opacity="1.000000" stroke="none" 
	d="
M127.496353,262.373108 
	C120.811249,263.912750 115.161377,260.725952 109.287842,257.088379 
	C110.146027,253.328171 111.779900,256.239014 113.065437,256.710693 
	C117.812271,258.452332 122.500290,260.354218 127.496353,262.373108 
z"/>
<path fill="#FFFFFF" opacity="1.000000" stroke="none" 
	d="
M373.188843,221.250031 
	C373.504547,220.838562 374.201996,220.622955 374.934052,220.755203 
	C374.502625,221.217346 374.036652,221.331604 373.188843,221.250031 
z"/>
<path fill="#C8A87E" opacity="1.000000" stroke="none" 
	d="
M465.837311,234.809814 
	C467.712311,250.538971 460.962250,261.783264 447.555786,269.342682 
	C428.189850,280.262390 401.857483,267.549805 398.025513,245.549637 
	C394.536896,225.520920 403.890106,208.143692 422.020233,203.122986 
	C427.757935,201.534058 434.370056,203.102768 441.003784,203.580902 
	C450.460938,208.513443 458.166534,214.496964 462.168121,224.182938 
	C463.596527,227.640411 464.625824,231.262741 465.837311,234.809814 
M431.694305,261.967712 
	C432.965363,261.637146 434.218658,261.184814 435.510437,260.996368 
	C442.473480,259.980377 447.924896,256.482697 450.165771,249.852112 
	C451.874939,244.794678 453.035004,239.184402 452.780762,233.899857 
	C452.032074,218.340240 437.784149,208.928421 424.069275,214.569885 
	C414.090179,218.674683 411.389343,227.340408 410.213287,237.393646 
	C407.296844,253.027496 418.186493,264.128876 431.694305,261.967712 
z"/>
<path fill="#F6F2ED" opacity="1.000000" stroke="none" 
	d="
M465.883789,234.387451 
	C464.625824,231.262741 463.596527,227.640411 462.168121,224.182938 
	C458.166534,214.496964 450.460938,208.513443 441.353485,203.632660 
	C450.565033,204.358597 456.753815,210.286606 461.038513,217.638535 
	C463.819489,222.410263 464.376709,228.477997 465.883789,234.387451 
z"/>
<path fill="#C8A87E" opacity="1.000000" stroke="none" 
	d="
M65.823013,258.794250 
	C61.571758,273.445007 43.460484,277.991364 31.009439,267.188843 
	C32.048199,264.774689 33.135632,262.247375 34.096222,260.014893 
	C37.362068,260.435760 40.193993,261.308014 42.922649,261.057129 
	C51.047039,260.310150 53.858055,257.116821 53.925259,248.900772 
	C54.025940,236.591568 53.926807,224.280884 53.966431,211.970993 
	C53.997406,202.347015 52.755966,202.978119 63.806534,203.477631 
	C64.595886,205.675003 64.960083,207.459000 64.965660,209.244125 
	C65.011833,224.020523 64.964195,238.797241 65.028168,253.573502 
	C65.035706,255.314865 65.545853,257.054047 65.823013,258.794250 
z"/>
<path fill="#F6F2ED" opacity="1.000000" stroke="none" 
	d="
M65.872284,258.342010 
	C65.545853,257.054047 65.035706,255.314865 65.028168,253.573502 
	C64.964195,238.797241 65.011833,224.020523 64.965660,209.244125 
	C64.960083,207.459000 64.595886,205.675003 64.265427,203.503937 
	C64.799431,204.276703 66.042107,205.434128 66.045868,206.595551 
	C66.101257,223.693314 65.991837,240.791611 65.872284,258.342010 
z"/>
<path fill="#C7A77C" opacity="1.000000" stroke="none" 
	d="
M84.873047,224.889648 
	C85.712555,222.578964 86.564888,220.272827 87.382797,217.954514 
	C87.595009,217.353043 87.699532,216.713577 87.837517,216.156158 
	C79.283615,210.102341 78.457283,206.365128 85.520454,202.877853 
	C91.177917,203.530945 92.098694,207.872314 94.097702,211.189545 
	C93.364037,217.013885 90.644150,221.673965 85.479935,225.105042 
	C85.047951,225.055588 84.873055,224.889648 84.873047,224.889648 
z"/>
<path fill="#ECE4D9" opacity="1.000000" stroke="none" 
	d="
M94.265488,210.850555 
	C92.098694,207.872314 91.177917,203.530945 85.874619,202.980011 
	C88.399818,200.550629 92.222626,201.424454 93.938728,205.275620 
	C94.614906,206.793076 94.297974,208.753082 94.265488,210.850555 
z"/>
<path fill="#C7A77C" opacity="1.000000" stroke="none" 
	d="
M85.132355,225.141663 
	C85.030380,225.402008 84.844009,225.576279 84.657631,225.750549 
	C84.620865,225.538422 84.584091,225.326309 84.710190,225.001923 
	C84.873055,224.889648 85.047951,225.055588 85.132355,225.141663 
z"/>
<path fill="#C7A77D" opacity="1.000000" stroke="none" 
	d="
M241.207550,268.975494 
	C220.930389,278.575623 197.492615,271.328552 188.090103,252.080383 
	C177.943695,231.309296 191.009628,208.580399 211.830124,203.055740 
	C213.901077,202.506241 216.076584,202.350677 219.038940,202.014130 
	C227.272949,204.018951 234.671600,206.021896 242.070236,208.024857 
	C240.396103,215.980408 239.393250,216.632401 232.160934,214.562057 
	C219.170715,210.843445 202.473785,216.810577 198.674530,232.819336 
	C194.670486,249.135666 203.786301,261.116486 219.975876,261.833679 
	C225.372833,260.871643 230.769791,259.909576 236.682800,259.293793 
	C238.535065,262.751892 239.871307,265.863678 241.207550,268.975494 
z"/>
<path fill="#776348" opacity="1.000000" stroke="none" 
	d="
M219.791397,261.534515 
	C203.786301,261.116486 194.670486,249.135666 198.659912,233.191467 
	C199.035568,238.798096 198.568024,244.628082 202.397049,249.958466 
	C206.161240,255.198547 210.730347,258.682159 217.009735,260.022156 
	C217.920288,260.216492 218.743362,260.820770 219.791397,261.534515 
z"/>
<path fill="#776348" opacity="1.000000" stroke="none" 
	d="
M242.307953,207.810455 
	C234.671600,206.021896 227.272949,204.018951 219.452820,201.977325 
	C227.256317,200.204803 234.908722,201.928268 242.157761,205.867966 
	C242.499237,206.053558 242.425842,207.002563 242.307953,207.810455 
z"/>
<path fill="#746147" opacity="1.000000" stroke="none" 
	d="
M241.485535,268.791260 
	C239.871307,265.863678 238.535065,262.751892 237.078506,259.304932 
	C240.626282,259.012482 243.403641,264.582581 241.485535,268.791260 
z"/>
<path fill="#916429" opacity="1.000000" stroke="none" 
	d="
M265.990540,231.008240 
	C268.695923,222.077103 273.170349,215.123749 283.465698,213.585709 
	C291.838806,212.334839 299.951935,215.706726 304.062012,223.291000 
	C309.094177,232.576736 308.939819,242.019699 304.057251,251.360886 
	C301.041901,257.129761 295.951050,259.911407 288.932434,261.018616 
	C277.007019,261.848694 269.329346,255.464081 267.696716,248.117065 
	C266.462280,242.562042 266.512207,236.721634 265.990540,231.008240 
M302.615631,243.428604 
	C302.884888,241.643311 303.335327,239.863953 303.393829,238.071777 
	C303.758545,226.902863 297.336517,216.266693 286.221069,218.017914 
	C279.075500,217.429306 274.670807,221.178894 271.896820,227.269119 
	C268.756714,234.163071 269.258850,241.196243 272.058960,247.982544 
	C274.908173,254.887863 281.211914,257.984436 289.116486,256.961151 
	C296.075195,256.060303 300.745544,251.342926 302.615631,243.428604 
z"/>
<path fill="#776348" opacity="1.000000" stroke="none" 
	d="
M265.725433,231.282227 
	C266.512207,236.721634 266.462280,242.562042 267.696716,248.117065 
	C269.329346,255.464081 277.007019,261.848694 288.545166,261.021606 
	C277.064240,265.067657 264.681732,257.557556 264.141937,241.795532 
	C264.025696,238.401459 264.992462,234.970306 265.725433,231.282227 
z"/>
<path fill="#986D34" opacity="1.000000" stroke="none" 
	d="
M410.873962,237.137024 
	C411.389343,227.340408 414.090179,218.674683 424.069275,214.569885 
	C437.784149,208.928421 452.032074,218.340240 452.780762,233.899857 
	C453.035004,239.184402 451.874939,244.794678 450.165771,249.852112 
	C447.924896,256.482697 442.473480,259.980377 435.510437,260.996368 
	C434.218658,261.184814 432.965363,261.637146 431.133362,261.637146 
	C417.270782,259.244446 411.647980,252.345352 410.873962,237.137024 
M418.325104,249.947342 
	C422.584473,256.246338 428.651886,257.984711 435.785522,256.647003 
	C441.591461,255.558228 445.241577,251.737808 446.830444,246.293533 
	C449.216400,238.118011 447.755219,230.404892 442.361328,223.759964 
	C435.101959,214.816940 422.230225,216.333481 417.388031,226.702835 
	C413.871033,234.234253 414.207397,241.843689 418.325104,249.947342 
z"/>
<path fill="#F6F2ED" opacity="1.000000" stroke="none" 
	d="
M410.543640,237.265335 
	C411.647980,252.345352 417.270782,259.244446 430.733185,261.649353 
	C418.186493,264.128876 407.296844,253.027496 410.543640,237.265335 
z"/>
<path fill="#6E5D46" opacity="1.000000" stroke="none" 
	d="
M302.040222,243.907227 
	C300.745544,251.342926 296.075195,256.060303 289.116486,256.961151 
	C281.211914,257.984436 274.908173,254.887863 272.058960,247.982544 
	C269.258850,241.196243 268.756714,234.163071 271.896820,227.269119 
	C274.670807,221.178894 279.075500,217.429306 286.821930,218.326385 
	C293.870422,220.337067 298.385742,224.274475 300.053436,230.738159 
	C301.156647,235.014084 301.407684,239.509872 302.040222,243.907227 
z"/>
<path fill="#BF9F76" opacity="1.000000" stroke="none" 
	d="
M302.327942,243.667908 
	C301.407684,239.509872 301.156647,235.014084 300.053436,230.738159 
	C298.385742,224.274475 293.870422,220.337067 287.248016,218.339783 
	C297.336517,216.266693 303.758545,226.902863 303.393829,238.071777 
	C303.335327,239.863953 302.884888,241.643311 302.327942,243.667908 
z"/>
<path fill="#FDFCFB" opacity="1.000000" stroke="none" 
	d="
M418.156311,249.609665 
	C414.207397,241.843689 413.871033,234.234253 417.388031,226.702835 
	C422.230225,216.333481 435.101959,214.816940 442.361328,223.759964 
	C447.755219,230.404892 449.216400,238.118011 446.830444,246.293533 
	C445.241577,251.737808 441.591461,255.558228 435.785522,256.647003 
	C428.651886,257.984711 422.584473,256.246338 418.156311,249.609665 
z"/>
</svg>